0
SECTION
2
HEADER
9
$INSUNITS
70
4
9
$ACADVER
1
AC1014
9
$HANDSEED
5
FFFF
0
ENDSEC
0
SECTION
2
TABLES
0
TABLE
2
VPORT
5
8
100
AcDbSymbolTable
0
ENDTAB
0
TABLE
2
LTYPE
5
5
100
AcDbSymbolTable
0
LTYPE
5
14
100
AcDbSymbolTableRecord
100
AcDbLinetypeTableRecord
2
BYBLOCK
70
0
0
LTYPE
5
15
100
AcDbSymbolTableRecord
100
AcDbLinetypeTableRecord
2
BYLAYER
70
0
0
ENDTAB
0
TABLE
2
LAYER
5
2
100
AcDbSymbolTable
70
2
0
LAYER
5
50
100
AcDbSymbolTableRecord
100
AcDbLayerTableRecord
2
0
70
0
6
CONTINUOUS
0
ENDTAB
0
TABLE
2
STYLE
5
3
100
AcDbSymbolTable
70
1
0
STYLE
5
11
100
AcDbSymbolTableRecord
100
AcDbTextStyleTableRecord
2
STANDARD
70
0
0
ENDTAB
0
TABLE
2
VIEW
5
6
100
AcDbSymbolTable
70
0
0
ENDTAB
0
TABLE
2
UCS
5
7
100
AcDbSymbolTable
70
0
0
ENDTAB
0
TABLE
2
APPID
5
9
100
AcDbSymbolTable
70
2
0
APPID
5
12
100
AcDbSymbolTableRecord
100
AcDbRegAppTableRecord
2
ACAD
70
0
0
ENDTAB
0
TABLE
2
DIMSTYLE
5
A
100
AcDbSymbolTable
70
1
0
ENDTAB
0
TABLE
2
BLOCK_RECORD
5
1
100
AcDbSymbolTable
70
1
0
BLOCK_RECORD
5
1F
100
AcDbSymbolTableRecord
100
AcDbBlockTableRecord
2
*MODEL_SPACE
0
BLOCK_RECORD
5
1B
100
AcDbSymbolTableRecord
100
AcDbBlockTableRecord
2
*PAPER_SPACE
0
ENDTAB
0
ENDSEC
0
SECTION
2
BLOCKS
0
BLOCK
5
20
100
AcDbEntity
100
AcDbBlockBegin
2
*MODEL_SPACE
0
ENDBLK
5
21
100
AcDbEntity
100
AcDbBlockEnd
0
BLOCK
5
1C
100
AcDbEntity
100
AcDbBlockBegin
2
*PAPER_SPACE
0
ENDBLK
5
1D
100
AcDbEntity
100
AcDbBlockEnd
0
ENDSEC
0
SECTION
2
ENTITIES
0
LWPOLYLINE
5
100
100
AcDbEntity
8
0
100
AcDbPolyline
90
8
70
1
43
0.0
10
126.50008062715656
20
13.999999999999986
10
126.50008062715997
20
20.000000000003553
42
0.41421356237288798
10
121.50008062715997
20
25.000000000000018
10
117.50008062715651
20
25
42
0.41421356237309398
10
112.50008062715651
20
19.999999999999982
10
112.50008062715651
20
13.999999999999986
42
0.41421356237309293
10
117.50008062715651
20
9.0000000000000036
10
121.50008062715642
20
9.0000000000000036
42
0.41421356237309193
0
LWPOLYLINE
5
101
100
AcDbEntity
8
0
100
AcDbPolyline
90
8
70
1
43
0.0
10
142.50008062715648
20
19.999999999999982
42
-0.41421356237309398
10
147.50008062715651
20
25
10
151.50008062715997
20
25.000000000000018
42
-0.41421356237288798
10
156.50008062715997
20
20.000000000003553
10
156.50008062715645
20
13.999999999999986
42
-0.41421356237309193
10
151.50008062715642
20
9.0000000000000036
10
147.50008062715651
20
9.0000000000000213
42
-0.41421356237309293
10
142.50008062715651
20
13.999999999999986
0
LWPOLYLINE
5
102
100
AcDbEntity
8
0
100
AcDbPolyline
90
24
70
1
43
0.0
10
21.070318411573172
20
48.144638684540084
42
-0.67071034581202438
10
20.727911573560007
20
48.28506764340213
10
20.727911573560007
20
50.544849579869876
42
0.4142135623732251
10
20.527911573560012
20
50.744849579869893
10
19.800080627114554
20
50.744849579869879
42
0.41421356237312978
10
19.500080627114542
20
50.444849579869896
10
19.500080627114524
20
43.700001333653887
42
0.41421356237296497
10
19.700080627114502
20
43.500001333653927
10
20.527911573560012
20
43.500001333653927
42
0.414213562373069
10
20.727911573560007
20
43.700001333653908
10
20.727911573560014
20
46.286556632589466
42
-0.20413557985114508
10
20.789357906487886
20
46.43078867251424
10
21.419337903122646
20
47.035966542572353
42
-0.47147415040738094
10
21.72585537766615
20
47.00030779300802
10
23.929385390717478
20
43.591428043293462
42
0.25452980861192809
10
24.09734919818888
20
43.500001333653927
10
25.128329395939133
20
43.50000133365392
42
0.59960779404378517
10
25.294547799686455
20
43.811228318939293
10
22.546446093730587
20
47.918011198356218
42
-0.36223331140490939
10
22.57338013701208
20
48.172764721012285
10
24.869147516085761
20
50.400676694858156
42
0.67361613250237562
10
24.729863155619896
20
50.744203232228777
10
23.717440954376556
20
50.744203232228799
42
0.2007304010450168
10
23.575034116363334
20
50.684632191090856
0
LWPOLYLINE
5
103
100
AcDbEntity
8
0
100
AcDbPolyline
90
8
70
1
43
0.0
10
5.500080627163797
20
43.999999999996518
10
5.5000806271596581
20
49.999999999996518
42
-0.41421356237329171
10
10.500080627159605
20
54.999999999999964
10
215.5000806271677
20
54.999999999999943
42
-0.41421356237309398
10
220.5000806271677
20
49.999999999999964
10
220.50008062716773
20
44
42
-0.41421356237309503
10
215.5000806271677
20
38.999999999999972
10
10.500080627163797
20
39
42
-0.41421356237289109
0
LWPOLYLINE
5
104
100
AcDbEntity
8
0
100
AcDbPolyline
90
8
70
1
43
0.0
10
136.50008062715642
20
9.0000000000000036
10
132.50008062715651
20
9.0000000000000213
42
-0.41421356237309293
10
127.50008062715651
20
13.999999999999986
10
127.50008062715648
20
19.999999999999982
42
-0.41421356237309398
10
132.50008062715651
20
25
10
136.50008062715997
20
25.000000000000018
42
-0.41421356237288798
10
141.50008062715997
20
20.000000000003553
10
141.50008062715654
20
13.999999999999986
42
-0.41421356237309609
0
CIRCLE
5
105
100
AcDbEntity
8
0
100
AcDbCircle
10
213.50008062711453
20
46.999999999999972
30
0
40
2.5000000000000022
210
0
220
0
230
1
0
CIRCLE
5
106
100
AcDbEntity
8
0
100
AcDbCircle
10
119.50008062715824
20
16.999999999999975
30
0
40
2.5
210
0
220
0
230
1
0
LWPOLYLINE
5
107
100
AcDbEntity
8
0
100
AcDbPolyline
90
8
70
1
43
0.0
10
87.500080627156478
20
9.0000000000000213
42
-0.41421356237309293
10
82.500080627156478
20
13.999999999999986
10
82.500080627156478
20
19.999999999999982
42
-0.41421356237309193
10
87.500080627156478
20
25
10
91.500080627159974
20
25.000000000000018
42
-0.41421356237288798
10
96.500080627159974
20
20.000000000003553
10
96.50008062715645
20
13.999999999999986
42
-0.41421356237309193
10
91.500080627156422
20
9.0000000000000036
0
LWPOLYLINE
5
108
100
AcDbEntity
8
0
100
AcDbPolyline
90
8
70
1
43
0.0
10
67.500080627156478
20
13.999999999999986
10
67.500080627156478
20
19.999999999999982
42
-0.41421356237309193
10
72.500080627156478
20
25
10
76.500080627159974
20
25.000000000000018
42
-0.41421356237288798
10
81.500080627159974
20
20.000000000003553
10
81.500080627156493
20
13.999999999999986
42
-0.41421356237309398
10
76.500080627156422
20
9.0000000000000036
10
72.500080627156478
20
9.0000000000000213
42
-0.41421356237309293
0
CIRCLE
5
109
100
AcDbEntity
8
0
100
AcDbCircle
10
74.500080627158212
20
16.999999999999975
30
0
40
2.5
210
0
220
0
230
1
0
LWPOLYLINE
5
110
100
AcDbEntity
8
0
100
AcDbPolyline
90
8
70
1
43
0.0
10
111.50008062715654
20
13.999999999999986
42
-0.41421356237309609
10
106.50008062715642
20
9.0000000000000036
10
102.50008062715651
20
9.0000000000000213
42
-0.41421356237309293
10
97.500080627156507
20
13.999999999999986
10
97.500080627156478
20
19.999999999999982
42
-0.41421356237309398
10
102.50008062715651
20
25
10
106.50008062715997
20
25.000000000000018
42
-0.41421356237288798
10
111.50008062715997
20
20.000000000003553
0
CIRCLE
5
111
100
AcDbEntity
8
0
100
AcDbCircle
10
89.500080627158212
20
16.999999999999975
30
0
40
2.5
210
0
220
0
230
1
0
CIRCLE
5
112
100
AcDbEntity
8
0
100
AcDbCircle
10
104.50008062715824
20
16.999999999999975
30
0
40
2.5
210
0
220
0
230
1
0
CIRCLE
5
113
100
AcDbEntity
8
0
100
AcDbCircle
10
12.500080627114549
20
46.99999999999649
30
0
40
2.5
210
0
220
0
230
1
0
CIRCLE
5
114
100
AcDbEntity
8
0
100
AcDbCircle
10
149.50008062715824
20
16.999999999999975
30
0
40
2.5
210
0
220
0
230
1
0
CIRCLE
5
115
100
AcDbEntity
8
0
100
AcDbCircle
10
134.50008062715824
20
16.999999999999975
30
0
40
2.5
210
0
220
0
230
1
0
ENDSEC
0
SECTION
2
OBJECTS
0
DICTIONARY
5
C
100
AcDbDictionary
3
ACAD_GROUP
350
D
3
ACAD_MLINESTYLE
350
17
0
DICTIONARY
5
D
100
AcDbDictionary
0
DICTIONARY
5
1A
330
C
100
AcDbDictionary
0
DICTIONARY
5
17
100
AcDbDictionary
0
ENDSEC
0
EOF
